{
	"asset":{
		"generator":"Khronos glTF Blender I/O v3.6.27",
		"version":"2.0"
	},
	"scene":0,
	"scenes":[
		{
			"name":"Scene",
			"nodes":[
				0
			]
		}
	],
	"nodes":[
		{
			"mesh":0,
			"name":"Viking Helmet",
			"scale":[
				2.5888895988464355,
				2.5888895988464355,
				2.5888895988464355
			],
			"translation":[
				0.4121784269809723,
				2.134169816970825,
				0.08793714642524719
			]
		}
	],
	"materials":[
		{
			"doubleSided":true,
			"name":"Material.001",
			"pbrMetallicRoughness":{
				"metallicFactor":0,
				"roughnessFactor":0.5
			}
		},
		{
			"doubleSided":true,
			"name":"Material.002",
			"pbrMetallicRoughness":{
				"baseColorFactor":[
					0.08351744711399078,
					0.0072621614672243595,
					0.00625787815079093,
					1
				],
				"metallicFactor":0,
				"roughnessFactor":0.5
			}
		},
		{
			"doubleSided":true,
			"name":"Material.003",
			"pbrMetallicRoughness":{
				"baseColorFactor":[
					0.36721327900886536,
					0.36721327900886536,
					0.36721327900886536,
					1
				],
				"metallicFactor":0,
				"roughnessFactor":0.5
			}
		},
		{
			"doubleSided":true,
			"name":"Material.004",
			"pbrMetallicRoughness":{
				"baseColorFactor":[
					0.09461218118667603,
					0.09461218118667603,
					0.09461218118667603,
					1
				],
				"metallicFactor":0,
				"roughnessFactor":0.5
			}
		},
		{
			"doubleSided":true,
			"name":"Material.005",
			"pbrMetallicRoughness":{
				"baseColorFactor":[
					0.031055685132741928,
					0.031055685132741928,
					0.031055685132741928,
					1
				],
				"metallicFactor":0,
				"roughnessFactor":0.5
			}
		}
	],
	"meshes":[
		{
			"name":"Viking Helmet.001",
			"primitives":[
				{
					"attributes":{
						"POSITION":0,
						"NORMAL":1,
						"TEXCOORD_0":2
					},
					"indices":3,
					"material":0
				},
				{
					"attributes":{
						"POSITION":4,
						"NORMAL":5,
						"TEXCOORD_0":6
					},
					"indices":7,
					"material":1
				},
				{
					"attributes":{
						"POSITION":8,
						"NORMAL":9,
						"TEXCOORD_0":10
					},
					"indices":11,
					"material":2
				},
				{
					"attributes":{
						"POSITION":12,
						"NORMAL":13,
						"TEXCOORD_0":14
					},
					"indices":15,
					"material":3
				},
				{
					"attributes":{
						"POSITION":16,
						"NORMAL":17,
						"TEXCOORD_0":18
					},
					"indices":19,
					"material":4
				}
			]
		}
	],
	"accessors":[
		{
			"bufferView":0,
			"componentType":5126,
			"count":1293,
			"max":[
				1.200738787651062,
				1.5904898643493652,
				0.8812448978424072
			],
			"min":[
				-1.200738787651062,
				-0.596055269241333,
				-0.8799047470092773
			],
			"type":"VEC3"
		},
		{
			"bufferView":1,
			"componentType":5126,
			"count":1293,
			"type":"VEC3"
		},
		{
			"bufferView":2,
			"componentType":5126,
			"count":1293,
			"type":"VEC2"
		},
		{
			"bufferView":3,
			"componentType":5123,
			"count":3690,
			"type":"SCALAR"
		},
		{
			"bufferView":4,
			"componentType":5126,
			"count":622,
			"max":[
				0.800315797328949,
				0.9325888752937317,
				0.7874256372451782
			],
			"min":[
				-0.800315797328949,
				0.14906838536262512,
				-0.7874256372451782
			],
			"type":"VEC3"
		},
		{
			"bufferView":5,
			"componentType":5126,
			"count":622,
			"type":"VEC3"
		},
		{
			"bufferView":6,
			"componentType":5126,
			"count":622,
			"type":"VEC2"
		},
		{
			"bufferView":7,
			"componentType":5123,
			"count":2784,
			"type":"SCALAR"
		},
		{
			"bufferView":8,
			"componentType":5126,
			"count":1426,
			"max":[
				0.8491753339767456,
				0.9762482047080994,
				0.8491753339767456
			],
			"min":[
				-0.8491753339767456,
				-0.26340627670288086,
				-0.8491753339767456
			],
			"type":"VEC3"
		},
		{
			"bufferView":9,
			"componentType":5126,
			"count":1426,
			"type":"VEC3"
		},
		{
			"bufferView":10,
			"componentType":5126,
			"count":1426,
			"type":"VEC2"
		},
		{
			"bufferView":11,
			"componentType":5123,
			"count":4932,
			"type":"SCALAR"
		},
		{
			"bufferView":12,
			"componentType":5126,
			"count":597,
			"max":[
				0.9405311942100525,
				1.0299768447875977,
				0.8812448978424072
			],
			"min":[
				-0.9405311942100525,
				-0.596055269241333,
				-0.8799047470092773
			],
			"type":"VEC3"
		},
		{
			"bufferView":13,
			"componentType":5126,
			"count":597,
			"type":"VEC3"
		},
		{
			"bufferView":14,
			"componentType":5126,
			"count":597,
			"type":"VEC2"
		},
		{
			"bufferView":15,
			"componentType":5123,
			"count":1230,
			"type":"SCALAR"
		},
		{
			"bufferView":16,
			"componentType":5126,
			"count":697,
			"max":[
				0.8037373423576355,
				0.8055416345596313,
				0.8037373423576355
			],
			"min":[
				-0.8037373423576355,
				-0.1615658700466156,
				-0.8037373423576355
			],
			"type":"VEC3"
		},
		{
			"bufferView":17,
			"componentType":5126,
			"count":697,
			"type":"VEC3"
		},
		{
			"bufferView":18,
			"componentType":5126,
			"count":697,
			"type":"VEC2"
		},
		{
			"bufferView":19,
			"componentType":5123,
			"count":3456,
			"type":"SCALAR"
		}
	],
	"bufferViews":[
		{
			"buffer":0,
			"byteLength":15516,
			"byteOffset":0,
			"target":34962
		},
		{
			"buffer":0,
			"byteLength":15516,
			"byteOffset":15516,
			"target":34962
		},
		{
			"buffer":0,
			"byteLength":10344,
			"byteOffset":31032,
			"target":34962
		},
		{
			"buffer":0,
			"byteLength":7380,
			"byteOffset":41376,
			"target":34963
		},
		{
			"buffer":0,
			"byteLength":7464,
			"byteOffset":48756,
			"target":34962
		},
		{
			"buffer":0,
			"byteLength":7464,
			"byteOffset":56220,
			"target":34962
		},
		{
			"buffer":0,
			"byteLength":4976,
			"byteOffset":63684,
			"target":34962
		},
		{
			"buffer":0,
			"byteLength":5568,
			"byteOffset":68660,
			"target":34963
		},
		{
			"buffer":0,
			"byteLength":17112,
			"byteOffset":74228,
			"target":34962
		},
		{
			"buffer":0,
			"byteLength":17112,
			"byteOffset":91340,
			"target":34962
		},
		{
			"buffer":0,
			"byteLength":11408,
			"byteOffset":108452,
			"target":34962
		},
		{
			"buffer":0,
			"byteLength":9864,
			"byteOffset":119860,
			"target":34963
		},
		{
			"buffer":0,
			"byteLength":7164,
			"byteOffset":129724,
			"target":34962
		},
		{
			"buffer":0,
			"byteLength":7164,
			"byteOffset":136888,
			"target":34962
		},
		{
			"buffer":0,
			"byteLength":4776,
			"byteOffset":144052,
			"target":34962
		},
		{
			"buffer":0,
			"byteLength":2460,
			"byteOffset":148828,
			"target":34963
		},
		{
			"buffer":0,
			"byteLength":8364,
			"byteOffset":151288,
			"target":34962
		},
		{
			"buffer":0,
			"byteLength":8364,
			"byteOffset":159652,
			"target":34962
		},
		{
			"buffer":0,
			"byteLength":5576,
			"byteOffset":168016,
			"target":34962
		},
		{
			"buffer":0,
			"byteLength":6912,
			"byteOffset":173592,
			"target":34963
		}
	],
	"buffers":[
		{
			"byteLength":180504,
			"uri":"data:application/octet-stream;base64,"
		}
	]
}
