{
	"asset":{
		"generator":"Khronos glTF Blender I/O v3.6.27",
		"version":"2.0"
	},
	"extensionsUsed":[
		"KHR_materials_unlit"
	],
	"scene":0,
	"scenes":[
		{
			"name":"Scene",
			"nodes":[
				0,
				1,
				2,
				3
			]
		}
	],
	"nodes":[
		{
			"mesh":0,
			"name":"Esfera",
			"translation":[
				0,
				2.3544812202453613,
				0
			]
		},
		{
			"mesh":1,
			"name":"Plano",
			"rotation":[
				0.7071068286895752,
				0,
				0,
				0.7071068286895752
			],
			"scale":[
				2.919424533843994,
				1,
				1.7617970705032349
			],
			"translation":[
				0.832261323928833,
				3,
				-3
			]
		},
		{
			"mesh":2,
			"name":"Cubo",
			"rotation":[
				0,
				0,
				-1,
				0
			],
			"scale":[
				-5.4289751052856445,
				-0.5245658755302429,
				-5.429685115814209
			],
			"translation":[
				1.7853425741195679,
				0.6086458563804626,
				0
			]
		},
		{
			"mesh":3,
			"name":"Cubo.001",
			"rotation":[
				0.7071068286895752,
				0,
				0,
				0.7071068286895752
			],
			"scale":[
				0.3647253215312958,
				5.473392486572266,
				2.118152379989624
			],
			"translation":[
				-3.253674030303955,
				3.2814598083496094,
				0
			]
		}
	],
	"materials":[
		{
			"doubleSided":true,
			"name":"Material.001",
			"pbrMetallicRoughness":{
				"baseColorFactor":[
					0.012060726061463356,
					0.8000000715255737,
					0,
					1
				],
				"metallicFactor":0,
				"roughnessFactor":0.8999999761581421
			}
		},
		{
			"doubleSided":true,
			"name":"Material.003",
			"pbrMetallicRoughness":{
				"roughnessFactor":0.0362318754196167
			}
		},
		{
			"doubleSided":true,
			"name":"Material.004",
			"pbrMetallicRoughness":{
				"baseColorFactor":[
					0.22657516598701477,
					0.014804868958890438,
					0,
					1
				],
				"metallicFactor":0,
				"roughnessFactor":0.5
			}
		},
		{
			"doubleSided":true,
			"extensions":{
				"KHR_materials_unlit":{}
			},
			"name":"Material.005",
			"pbrMetallicRoughness":{
				"baseColorTexture":{
					"index":0,
					"texCoord":0
				},
				"metallicFactor":0,
				"roughnessFactor":0.9
			}
		}
	],
	"meshes":[
		{
			"name":"Esfera",
			"primitives":[
				{
					"attributes":{
						"POSITION":0,
						"NORMAL":1,
						"TEXCOORD_0":2
					},
					"indices":3,
					"material":0
				}
			]
		},
		{
			"name":"Plano",
			"primitives":[
				{
					"attributes":{
						"POSITION":4,
						"NORMAL":5,
						"TEXCOORD_0":6
					},
					"indices":7,
					"material":1
				}
			]
		},
		{
			"name":"Cubo",
			"primitives":[
				{
					"attributes":{
						"POSITION":8,
						"NORMAL":9,
						"TEXCOORD_0":10
					},
					"indices":11,
					"material":2
				}
			]
		},
		{
			"name":"Cubo.001",
			"primitives":[
				{
					"attributes":{
						"POSITION":12,
						"NORMAL":13,
						"TEXCOORD_0":14
					},
					"indices":11,
					"material":3
				}
			]
		}
	],
	"textures":[
		{
			"sampler":0,
			"source":0
		}
	],
	"images":[
		{
			"bufferView":15,
			"mimeType":"image/jpeg",
			"name":"textura-patron-pared-ladrillo-rojo_53876-23210.jpg"
		}
	],
	"accessors":[
		{
			"bufferView":0,
			"componentType":5126,
			"count":1984,
			"max":[
				0.9999997019767761,
				1,
				0.9999993443489075
			],
			"min":[
				-0.9999990463256836,
				-1,
				-1
			],
			"type":"VEC3"
		},
		{
			"bufferView":1,
			"componentType":5126,
			"count":1984,
			"type":"VEC3"
		},
		{
			"bufferView":2,
			"componentType":5126,
			"count":1984,
			"type":"VEC2"
		},
		{
			"bufferView":3,
			"componentType":5123,
			"count":2880,
			"type":"SCALAR"
		},
		{
			"bufferView":4,
			"componentType":5126,
			"count":4,
			"max":[
				1,
				0,
				1
			],
			"min":[
				-1,
				0,
				-1
			],
			"type":"VEC3"
		},
		{
			"bufferView":5,
			"componentType":5126,
			"count":4,
			"type":"VEC3"
		},
		{
			"bufferView":6,
			"componentType":5126,
			"count":4,
			"type":"VEC2"
		},
		{
			"bufferView":7,
			"componentType":5123,
			"count":6,
			"type":"SCALAR"
		},
		{
			"bufferView":8,
			"componentType":5126,
			"count":24,
			"max":[
				1,
				1,
				1
			],
			"min":[
				-1,
				-1,
				-1
			],
			"type":"VEC3"
		},
		{
			"bufferView":9,
			"componentType":5126,
			"count":24,
			"type":"VEC3"
		},
		{
			"bufferView":10,
			"componentType":5126,
			"count":24,
			"type":"VEC2"
		},
		{
			"bufferView":11,
			"componentType":5123,
			"count":36,
			"type":"SCALAR"
		},
		{
			"bufferView":12,
			"componentType":5126,
			"count":24,
			"max":[
				1,
				1,
				1
			],
			"min":[
				-1,
				-1,
				-1
			],
			"type":"VEC3"
		},
		{
			"bufferView":13,
			"componentType":5126,
			"count":24,
			"type":"VEC3"
		},
		{
			"bufferView":14,
			"componentType":5126,
			"count":24,
			"type":"VEC2"
		}
	],
	"bufferViews":[
		{
			"buffer":0,
			"byteLength":23808,
			"byteOffset":0,
			"target":34962
		},
		{
			"buffer":0,
			"byteLength":23808,
			"byteOffset":23808,
			"target":34962
		},
		{
			"buffer":0,
			"byteLength":15872,
			"byteOffset":47616,
			"target":34962
		},
		{
			"buffer":0,
			"byteLength":5760,
			"byteOffset":63488,
			"target":34963
		},
		{
			"buffer":0,
			"byteLength":48,
			"byteOffset":69248,
			"target":34962
		},
		{
			"buffer":0,
			"byteLength":48,
			"byteOffset":69296,
			"target":34962
		},
		{
			"buffer":0,
			"byteLength":32,
			"byteOffset":69344,
			"target":34962
		},
		{
			"buffer":0,
			"byteLength":12,
			"byteOffset":69376,
			"target":34963
		},
		{
			"buffer":0,
			"byteLength":288,
			"byteOffset":69388,
			"target":34962
		},
		{
			"buffer":0,
			"byteLength":288,
			"byteOffset":69676,
			"target":34962
		},
		{
			"buffer":0,
			"byteLength":192,
			"byteOffset":69964,
			"target":34962
		},
		{
			"buffer":0,
			"byteLength":72,
			"byteOffset":70156,
			"target":34963
		},
		{
			"buffer":0,
			"byteLength":288,
			"byteOffset":70228,
			"target":34962
		},
		{
			"buffer":0,
			"byteLength":288,
			"byteOffset":70516,
			"target":34962
		},
		{
			"buffer":0,
			"byteLength":192,
			"byteOffset":70804,
			"target":34962
		},
		{
			"buffer":0,
			"byteLength":156254,
			"byteOffset":70996
		}
	],
	"samplers":[
		{
			"magFilter":9729,
			"minFilter":9987,
			"wrapS":33071,
			"wrapT":33071
		}
	],
	"buffers":[
		{
			"byteLength":227252,
			"uri":"data:application/octet-stream;base64,"
		}
	]
}
