{
	"asset":{
		"generator":"Khronos glTF Blender I/O v3.6.27",
		"version":"2.0"
	},
	"scene":0,
	"scenes":[
		{
			"name":"Scene",
			"nodes":[
				0
			]
		}
	],
	"nodes":[
		{
			"mesh":0,
			"name":"Rosca.001",
			"rotation":[
				0.7071068286895752,
				0,
				0,
				0.7071068286895752
			],
			"scale":[
				1,
				0.5,
				1
			],
			"translation":[
				0,
				3,
				0
			]
		}
	],
	"materials":[
		{
			"doubleSided":true,
			"name":"Material.001",
			"pbrMetallicRoughness":{
				"baseColorFactor":[
					0.8000000715255737,
					0.07974832504987717,
					0,
					1
				],
				"metallicFactor":0,
				"roughnessFactor":0.5
			}
		},
		{
			"doubleSided":true,
			"name":"Material.002",
			"pbrMetallicRoughness":{
				"baseColorFactor":[
					0,
					0.004765985067933798,
					0.8000000715255737,
					1
				],
				"metallicFactor":0,
				"roughnessFactor":0.5
			}
		},
		{
			"doubleSided":true,
			"name":"Material.003",
			"pbrMetallicRoughness":{
				"baseColorFactor":[
					0.800000011920929,
					0.800000011920929,
					0.800000011920929,
					1
				],
				"metallicFactor":0,
				"roughnessFactor":0.5
			}
		}
	],
	"meshes":[
		{
			"name":"Rosca.001",
			"primitives":[
				{
					"attributes":{
						"POSITION":0,
						"NORMAL":1,
						"TEXCOORD_0":2
					},
					"indices":3,
					"material":0
				},
				{
					"attributes":{
						"POSITION":4,
						"NORMAL":5,
						"TEXCOORD_0":6
					},
					"indices":7,
					"material":1
				},
				{
					"attributes":{
						"POSITION":8,
						"NORMAL":9,
						"TEXCOORD_0":10
					},
					"indices":11,
					"material":2
				}
			]
		}
	],
	"accessors":[
		{
			"bufferView":0,
			"componentType":5126,
			"count":895,
			"max":[
				1.25,
				0.25,
				1.25
			],
			"min":[
				-3.0188097953796387,
				-0.25,
				-2.365229845046997
			],
			"type":"VEC3"
		},
		{
			"bufferView":1,
			"componentType":5126,
			"count":895,
			"type":"VEC3"
		},
		{
			"bufferView":2,
			"componentType":5126,
			"count":895,
			"type":"VEC2"
		},
		{
			"bufferView":3,
			"componentType":5123,
			"count":3276,
			"type":"SCALAR"
		},
		{
			"bufferView":4,
			"componentType":5126,
			"count":98,
			"max":[
				0.6732091903686523,
				0.3267955780029297,
				0.6732091307640076
			],
			"min":[
				-0.6732091903686523,
				0.23904453217983246,
				-0.6732091903686523
			],
			"type":"VEC3"
		},
		{
			"bufferView":5,
			"componentType":5126,
			"count":98,
			"type":"VEC3"
		},
		{
			"bufferView":6,
			"componentType":5126,
			"count":98,
			"type":"VEC2"
		},
		{
			"bufferView":7,
			"componentType":5123,
			"count":288,
			"type":"SCALAR"
		},
		{
			"bufferView":8,
			"componentType":5126,
			"count":98,
			"max":[
				0.7834936380386353,
				0.23904453217983246,
				0.7834936380386353
			],
			"min":[
				-0.7834936380386353,
				0.125,
				-0.7834936380386353
			],
			"type":"VEC3"
		},
		{
			"bufferView":9,
			"componentType":5126,
			"count":98,
			"type":"VEC3"
		},
		{
			"bufferView":10,
			"componentType":5126,
			"count":98,
			"type":"VEC2"
		},
		{
			"bufferView":11,
			"componentType":5123,
			"count":288,
			"type":"SCALAR"
		}
	],
	"bufferViews":[
		{
			"buffer":0,
			"byteLength":10740,
			"byteOffset":0,
			"target":34962
		},
		{
			"buffer":0,
			"byteLength":10740,
			"byteOffset":10740,
			"target":34962
		},
		{
			"buffer":0,
			"byteLength":7160,
			"byteOffset":21480,
			"target":34962
		},
		{
			"buffer":0,
			"byteLength":6552,
			"byteOffset":28640,
			"target":34963
		},
		{
			"buffer":0,
			"byteLength":1176,
			"byteOffset":35192,
			"target":34962
		},
		{
			"buffer":0,
			"byteLength":1176,
			"byteOffset":36368,
			"target":34962
		},
		{
			"buffer":0,
			"byteLength":784,
			"byteOffset":37544,
			"target":34962
		},
		{
			"buffer":0,
			"byteLength":576,
			"byteOffset":38328,
			"target":34963
		},
		{
			"buffer":0,
			"byteLength":1176,
			"byteOffset":38904,
			"target":34962
		},
		{
			"buffer":0,
			"byteLength":1176,
			"byteOffset":40080,
			"target":34962
		},
		{
			"buffer":0,
			"byteLength":784,
			"byteOffset":41256,
			"target":34962
		},
		{
			"buffer":0,
			"byteLength":576,
			"byteOffset":42040,
			"target":34963
		}
	],
	"buffers":[
		{
			"byteLength":42616,
			"uri":"data:application/octet-stream;base64,"
		}
	]
}
