{
	"asset":{
		"generator":"Khronos glTF Blender I/O v3.6.27",
		"version":"2.0"
	},
	"scene":0,
	"scenes":[
		{
			"name":"Scene",
			"nodes":[
				0
			]
		}
	],
	"nodes":[
		{
			"mesh":0,
			"name":"Cubo",
			"rotation":[
				0,
				1,
				0,
				0
			],
			"scale":[
				-6.656763076782227,
				-0.09559955447912216,
				-2.967851400375366
			],
			"translation":[
				-0.3446955680847168,
				5.180817604064941,
				-1.2336784601211548
			]
		}
	],
	"materials":[
		{
			"doubleSided":true,
			"name":"cafe",
			"pbrMetallicRoughness":{
				"baseColorFactor":[
					0.046951692551374435,
					0.008662261068820953,
					0.006270538084208965,
					1
				],
				"metallicFactor":0,
				"roughnessFactor":0.5
			}
		},
		{
			"doubleSided":true,
			"name":"Material.002",
			"pbrMetallicRoughness":{
				"baseColorFactor":[
					0.06198869273066521,
					0.08925263583660126,
					0.11927016824483871,
					1
				],
				"metallicFactor":0,
				"roughnessFactor":0.5
			}
		},
		{
			"doubleSided":true,
			"name":"Material.003",
			"pbrMetallicRoughness":{
				"baseColorFactor":[
					0,
					0,
					0,
					1
				],
				"metallicFactor":0,
				"roughnessFactor":0.5
			}
		}
	],
	"meshes":[
		{
			"name":"Cubo",
			"primitives":[
				{
					"attributes":{
						"POSITION":0,
						"NORMAL":1,
						"TEXCOORD_0":2
					},
					"indices":3,
					"material":0
				},
				{
					"attributes":{
						"POSITION":4,
						"NORMAL":5,
						"TEXCOORD_0":6
					},
					"indices":7,
					"material":1
				},
				{
					"attributes":{
						"POSITION":8,
						"NORMAL":9,
						"TEXCOORD_0":10
					},
					"indices":11,
					"material":2
				}
			]
		}
	],
	"accessors":[
		{
			"bufferView":0,
			"componentType":5126,
			"count":692,
			"max":[
				1,
				48.64767074584961,
				1
			],
			"min":[
				-1,
				-1,
				-1
			],
			"type":"VEC3"
		},
		{
			"bufferView":1,
			"componentType":5126,
			"count":692,
			"type":"VEC3"
		},
		{
			"bufferView":2,
			"componentType":5126,
			"count":692,
			"type":"VEC2"
		},
		{
			"bufferView":3,
			"componentType":5123,
			"count":2544,
			"type":"SCALAR"
		},
		{
			"bufferView":4,
			"componentType":5126,
			"count":1314,
			"max":[
				0.7820813655853271,
				48.64767074584961,
				0.8611006736755371
			],
			"min":[
				-0.7820813655853271,
				1,
				-0.8611006736755371
			],
			"type":"VEC3"
		},
		{
			"bufferView":5,
			"componentType":5126,
			"count":1314,
			"type":"VEC3"
		},
		{
			"bufferView":6,
			"componentType":5126,
			"count":1314,
			"type":"VEC2"
		},
		{
			"bufferView":7,
			"componentType":5123,
			"count":3672,
			"type":"SCALAR"
		},
		{
			"bufferView":8,
			"componentType":5126,
			"count":368,
			"max":[
				0.7767186760902405,
				51.48019027709961,
				0.7684399485588074
			],
			"min":[
				-0.7767186760902405,
				48.64767074584961,
				-0.7684399485588074
			],
			"type":"VEC3"
		},
		{
			"bufferView":9,
			"componentType":5126,
			"count":368,
			"type":"VEC3"
		},
		{
			"bufferView":10,
			"componentType":5126,
			"count":368,
			"type":"VEC2"
		},
		{
			"bufferView":11,
			"componentType":5123,
			"count":960,
			"type":"SCALAR"
		}
	],
	"bufferViews":[
		{
			"buffer":0,
			"byteLength":8304,
			"byteOffset":0,
			"target":34962
		},
		{
			"buffer":0,
			"byteLength":8304,
			"byteOffset":8304,
			"target":34962
		},
		{
			"buffer":0,
			"byteLength":5536,
			"byteOffset":16608,
			"target":34962
		},
		{
			"buffer":0,
			"byteLength":5088,
			"byteOffset":22144,
			"target":34963
		},
		{
			"buffer":0,
			"byteLength":15768,
			"byteOffset":27232,
			"target":34962
		},
		{
			"buffer":0,
			"byteLength":15768,
			"byteOffset":43000,
			"target":34962
		},
		{
			"buffer":0,
			"byteLength":10512,
			"byteOffset":58768,
			"target":34962
		},
		{
			"buffer":0,
			"byteLength":7344,
			"byteOffset":69280,
			"target":34963
		},
		{
			"buffer":0,
			"byteLength":4416,
			"byteOffset":76624,
			"target":34962
		},
		{
			"buffer":0,
			"byteLength":4416,
			"byteOffset":81040,
			"target":34962
		},
		{
			"buffer":0,
			"byteLength":2944,
			"byteOffset":85456,
			"target":34962
		},
		{
			"buffer":0,
			"byteLength":1920,
			"byteOffset":88400,
			"target":34963
		}
	],
	"buffers":[
		{
			"byteLength":90320,
			"uri":"data:application/octet-stream;base64,"
		}
	]
}
