{
	"asset":{
		"generator":"Khronos glTF Blender I/O v3.6.27",
		"version":"2.0"
	},
	"scene":0,
	"scenes":[
		{
			"name":"Scene",
			"nodes":[
				0,
				1,
				2,
				3,
				4,
				5,
				6,
				7,
				8,
				9,
				10,
				11,
				12,
				13,
				14,
				15,
				16
			]
		}
	],
	"nodes":[
		{
			"mesh":0,
			"name":"Esfera",
			"rotation":[
				0,
				0.8516563773155212,
				0,
				0.5241006016731262
			],
			"scale":[
				1.2967455387115479,
				1.2967455387115479,
				1.2967455387115479
			],
			"translation":[
				5.505699157714844,
				-0.1812605857849121,
				0.9054443836212158
			]
		},
		{
			"mesh":1,
			"name":"Esfera.001",
			"rotation":[
				0,
				0.8516563773155212,
				0,
				0.5241006016731262
			],
			"translation":[
				4.484853744506836,
				0,
				-0.1996757984161377
			]
		},
		{
			"mesh":2,
			"name":"Esfera.002",
			"rotation":[
				0,
				0.8516563773155212,
				0,
				0.5241006016731262
			],
			"translation":[
				3.2809040546417236,
				0,
				-0.852266788482666
			]
		},
		{
			"mesh":3,
			"name":"Esfera.003",
			"rotation":[
				0,
				0.8516563773155212,
				0,
				0.5241006016731262
			],
			"translation":[
				1.923317790031433,
				0,
				-1.4015809297561646
			]
		},
		{
			"mesh":4,
			"name":"Esfera.004",
			"rotation":[
				0,
				0.8516563773155212,
				0,
				0.5241006016731262
			],
			"translation":[
				1.3733357191085815,
				0,
				-2.89871883392334
			]
		},
		{
			"mesh":5,
			"name":"Esfera.005",
			"rotation":[
				0,
				0.8516563773155212,
				0,
				0.5241006016731262
			],
			"translation":[
				1.141366958618164,
				0,
				-4.479225158691406
			]
		},
		{
			"mesh":6,
			"name":"Esfera.006",
			"rotation":[
				0,
				0.8516563773155212,
				0,
				0.5241006016731262
			],
			"translation":[
				-0.12545371055603027,
				0,
				-5.460176944732666
			]
		},
		{
			"mesh":7,
			"name":"Esfera.007",
			"rotation":[
				0,
				0.9625312685966492,
				0,
				0.2711706757545471
			],
			"scale":[
				0.21282461285591125,
				0.21282462775707245,
				1.3582878112792969
			],
			"translation":[
				-0.12545371055603027,
				1.1826649904251099,
				-5.460176944732666
			]
		},
		{
			"mesh":8,
			"name":"Esfera.008",
			"rotation":[
				0,
				0.8602409362792969,
				0,
				0.5098877549171448
			],
			"scale":[
				0.21282462775707245,
				0.21282462775707245,
				1.3582878112792969
			],
			"translation":[
				1.1619294881820679,
				1.1826649904251099,
				-4.472696304321289
			]
		},
		{
			"mesh":9,
			"name":"Esfera.009",
			"rotation":[
				0,
				0.7689475417137146,
				0,
				0.6393118500709534
			],
			"scale":[
				0.21282462775707245,
				0.21282462775707245,
				1.3582878112792969
			],
			"translation":[
				1.322627067565918,
				1.1826649904251099,
				-2.856926441192627
			]
		},
		{
			"mesh":10,
			"name":"Esfera.010",
			"rotation":[
				0,
				0.9151458740234375,
				0,
				0.4031228721141815
			],
			"scale":[
				0.21282464265823364,
				0.21282462775707245,
				1.3582878112792969
			],
			"translation":[
				1.9046050310134888,
				1.1826649904251099,
				-1.4091631174087524
			]
		},
		{
			"mesh":11,
			"name":"Esfera.011",
			"rotation":[
				0,
				0.9601406455039978,
				0,
				0.2795177400112152
			],
			"scale":[
				0.21282464265823364,
				0.21282462775707245,
				1.3582878112792969
			],
			"translation":[
				3.309358596801758,
				1.1826649904251099,
				-0.8084002733230591
			]
		},
		{
			"mesh":12,
			"name":"Esfera.012",
			"rotation":[
				0,
				0.9098480939865112,
				0,
				0.41494154930114746
			],
			"scale":[
				0.21282462775707245,
				0.21282462775707245,
				1.3582878112792969
			],
			"translation":[
				4.482627868652344,
				1.1826649904251099,
				-0.13543963432312012
			]
		},
		{
			"mesh":13,
			"name":"Esfera.013",
			"rotation":[
				0,
				0.7039965987205505,
				0,
				0.7102033495903015
			],
			"scale":[
				0.1272650808095932,
				0.779052197933197,
				0.7790522575378418
			],
			"translation":[
				5.4587554931640625,
				0.9750227928161621,
				2.0857155323028564
			]
		},
		{
			"mesh":14,
			"name":"Esfera.014",
			"rotation":[
				0,
				0.7039965987205505,
				0,
				0.7102033495903015
			],
			"scale":[
				-0.1904900074005127,
				-0.1904900074005127,
				-0.1904900074005127
			],
			"translation":[
				5.2082414627075195,
				3.0202646255493164,
				2.1169490814208984
			]
		},
		{
			"mesh":15,
			"name":"Esfera.015",
			"rotation":[
				0,
				0.7039965987205505,
				0,
				0.7102033495903015
			],
			"scale":[
				-0.1904900074005127,
				-0.1904900074005127,
				-0.1904900074005127
			],
			"translation":[
				5.755252838134766,
				3.0202646255493164,
				2.102268695831299
			]
		},
		{
			"mesh":16,
			"name":"Esfera.016",
			"rotation":[
				0,
				0.7039965987205505,
				0,
				0.7102033495903015
			],
			"scale":[
				-0.14946554601192474,
				-0.18695902824401855,
				-0.4402807354927063
			],
			"translation":[
				5.472684860229492,
				2.3914475440979004,
				2.1210520267486572
			]
		}
	],
	"materials":[
		{
			"doubleSided":true,
			"name":"Material.001",
			"pbrMetallicRoughness":{
				"baseColorFactor":[
					0.00011119393457192928,
					0.8900059461593628,
					0.00558522017672658,
					1
				],
				"metallicFactor":0,
				"roughnessFactor":0.5
			}
		},
		{
			"doubleSided":true,
			"name":"Material.002",
			"pbrMetallicRoughness":{
				"baseColorFactor":[
					0.002961935242637992,
					0.4570585787296295,
					0.020621521398425102,
					1
				],
				"metallicFactor":0,
				"roughnessFactor":0.5
			}
		},
		{
			"doubleSided":true,
			"name":"Material.004",
			"pbrMetallicRoughness":{
				"baseColorFactor":[
					0,
					0.2956918776035309,
					0.002303107874467969,
					1
				],
				"metallicFactor":0,
				"roughnessFactor":0.5
			}
		},
		{
			"doubleSided":true,
			"name":"Material.005",
			"pbrMetallicRoughness":{
				"baseColorFactor":[
					0,
					0,
					0,
					1
				],
				"metallicFactor":0,
				"roughnessFactor":0.5
			}
		},
		{
			"doubleSided":true,
			"name":"Material.006",
			"pbrMetallicRoughness":{
				"baseColorFactor":[
					0.7612720727920532,
					0.0915990099310875,
					0.15140171349048615,
					1
				],
				"metallicFactor":0,
				"roughnessFactor":0.5
			}
		}
	],
	"meshes":[
		{
			"name":"Esfera",
			"primitives":[
				{
					"attributes":{
						"POSITION":0,
						"NORMAL":1,
						"TEXCOORD_0":2
					},
					"indices":3,
					"material":0
				}
			]
		},
		{
			"name":"Esfera.001",
			"primitives":[
				{
					"attributes":{
						"POSITION":4,
						"NORMAL":5,
						"TEXCOORD_0":6
					},
					"indices":3,
					"material":0
				}
			]
		},
		{
			"name":"Esfera.002",
			"primitives":[
				{
					"attributes":{
						"POSITION":7,
						"NORMAL":8,
						"TEXCOORD_0":9
					},
					"indices":3,
					"material":0
				}
			]
		},
		{
			"name":"Esfera.003",
			"primitives":[
				{
					"attributes":{
						"POSITION":10,
						"NORMAL":11,
						"TEXCOORD_0":12
					},
					"indices":3,
					"material":0
				}
			]
		},
		{
			"name":"Esfera.004",
			"primitives":[
				{
					"attributes":{
						"POSITION":13,
						"NORMAL":14,
						"TEXCOORD_0":15
					},
					"indices":3,
					"material":0
				}
			]
		},
		{
			"name":"Esfera.005",
			"primitives":[
				{
					"attributes":{
						"POSITION":16,
						"NORMAL":17,
						"TEXCOORD_0":18
					},
					"indices":3,
					"material":0
				}
			]
		},
		{
			"name":"Esfera.006",
			"primitives":[
				{
					"attributes":{
						"POSITION":19,
						"NORMAL":20,
						"TEXCOORD_0":21
					},
					"indices":3,
					"material":0
				}
			]
		},
		{
			"name":"Esfera.007",
			"primitives":[
				{
					"attributes":{
						"POSITION":22,
						"NORMAL":23,
						"TEXCOORD_0":24
					},
					"indices":3,
					"material":1
				}
			]
		},
		{
			"name":"Esfera.008",
			"primitives":[
				{
					"attributes":{
						"POSITION":25,
						"NORMAL":26,
						"TEXCOORD_0":27
					},
					"indices":3,
					"material":1
				}
			]
		},
		{
			"name":"Esfera.009",
			"primitives":[
				{
					"attributes":{
						"POSITION":28,
						"NORMAL":29,
						"TEXCOORD_0":30
					},
					"indices":3,
					"material":1
				}
			]
		},
		{
			"name":"Esfera.010",
			"primitives":[
				{
					"attributes":{
						"POSITION":31,
						"NORMAL":32,
						"TEXCOORD_0":33
					},
					"indices":3,
					"material":1
				}
			]
		},
		{
			"name":"Esfera.011",
			"primitives":[
				{
					"attributes":{
						"POSITION":34,
						"NORMAL":35,
						"TEXCOORD_0":36
					},
					"indices":3,
					"material":1
				}
			]
		},
		{
			"name":"Esfera.012",
			"primitives":[
				{
					"attributes":{
						"POSITION":37,
						"NORMAL":38,
						"TEXCOORD_0":39
					},
					"indices":3,
					"material":1
				}
			]
		},
		{
			"name":"Esfera.013",
			"primitives":[
				{
					"attributes":{
						"POSITION":40,
						"NORMAL":41,
						"TEXCOORD_0":42
					},
					"indices":3,
					"material":2
				}
			]
		},
		{
			"name":"Esfera.014",
			"primitives":[
				{
					"attributes":{
						"POSITION":43,
						"NORMAL":44,
						"TEXCOORD_0":45
					},
					"indices":46,
					"material":3
				}
			]
		},
		{
			"name":"Esfera.015",
			"primitives":[
				{
					"attributes":{
						"POSITION":47,
						"NORMAL":48,
						"TEXCOORD_0":49
					},
					"indices":46,
					"material":3
				}
			]
		},
		{
			"name":"Esfera.016",
			"primitives":[
				{
					"attributes":{
						"POSITION":50,
						"NORMAL":51,
						"TEXCOORD_0":52
					},
					"indices":46,
					"material":4
				}
			]
		}
	],
	"accessors":[
		{
			"bufferView":0,
			"componentType":5126,
			"count":1984,
			"max":[
				0.9999997019767761,
				3.2253623008728027,
				0.9999993443489075
			],
			"min":[
				-0.9999990463256836,
				1.2253623008728027,
				-1
			],
			"type":"VEC3"
		},
		{
			"bufferView":1,
			"componentType":5126,
			"count":1984,
			"type":"VEC3"
		},
		{
			"bufferView":2,
			"componentType":5126,
			"count":1984,
			"type":"VEC2"
		},
		{
			"bufferView":3,
			"componentType":5123,
			"count":2880,
			"type":"SCALAR"
		},
		{
			"bufferView":4,
			"componentType":5126,
			"count":1984,
			"max":[
				0.9999997019767761,
				3.2253623008728027,
				0.9999993443489075
			],
			"min":[
				-0.9999990463256836,
				1.2253623008728027,
				-1
			],
			"type":"VEC3"
		},
		{
			"bufferView":5,
			"componentType":5126,
			"count":1984,
			"type":"VEC3"
		},
		{
			"bufferView":6,
			"componentType":5126,
			"count":1984,
			"type":"VEC2"
		},
		{
			"bufferView":7,
			"componentType":5126,
			"count":1984,
			"max":[
				0.9999997019767761,
				3.2253623008728027,
				0.9999993443489075
			],
			"min":[
				-0.9999990463256836,
				1.2253623008728027,
				-1
			],
			"type":"VEC3"
		},
		{
			"bufferView":8,
			"componentType":5126,
			"count":1984,
			"type":"VEC3"
		},
		{
			"bufferView":9,
			"componentType":5126,
			"count":1984,
			"type":"VEC2"
		},
		{
			"bufferView":10,
			"componentType":5126,
			"count":1984,
			"max":[
				0.9999997019767761,
				3.2253623008728027,
				0.9999993443489075
			],
			"min":[
				-0.9999990463256836,
				1.2253623008728027,
				-1
			],
			"type":"VEC3"
		},
		{
			"bufferView":11,
			"componentType":5126,
			"count":1984,
			"type":"VEC3"
		},
		{
			"bufferView":12,
			"componentType":5126,
			"count":1984,
			"type":"VEC2"
		},
		{
			"bufferView":13,
			"componentType":5126,
			"count":1984,
			"max":[
				0.9999997019767761,
				3.2253623008728027,
				0.9999993443489075
			],
			"min":[
				-0.9999990463256836,
				1.2253623008728027,
				-1
			],
			"type":"VEC3"
		},
		{
			"bufferView":14,
			"componentType":5126,
			"count":1984,
			"type":"VEC3"
		},
		{
			"bufferView":15,
			"componentType":5126,
			"count":1984,
			"type":"VEC2"
		},
		{
			"bufferView":16,
			"componentType":5126,
			"count":1984,
			"max":[
				0.9999997019767761,
				3.2253623008728027,
				0.9999993443489075
			],
			"min":[
				-0.9999990463256836,
				1.2253623008728027,
				-1
			],
			"type":"VEC3"
		},
		{
			"bufferView":17,
			"componentType":5126,
			"count":1984,
			"type":"VEC3"
		},
		{
			"bufferView":18,
			"componentType":5126,
			"count":1984,
			"type":"VEC2"
		},
		{
			"bufferView":19,
			"componentType":5126,
			"count":1984,
			"max":[
				0.9999997019767761,
				3.2253623008728027,
				0.9999993443489075
			],
			"min":[
				-0.9999990463256836,
				1.2253623008728027,
				-1
			],
			"type":"VEC3"
		},
		{
			"bufferView":20,
			"componentType":5126,
			"count":1984,
			"type":"VEC3"
		},
		{
			"bufferView":21,
			"componentType":5126,
			"count":1984,
			"type":"VEC2"
		},
		{
			"bufferView":22,
			"componentType":5126,
			"count":1984,
			"max":[
				0.9999997019767761,
				3.2253623008728027,
				0.9999993443489075
			],
			"min":[
				-0.9999990463256836,
				1.2253623008728027,
				-1
			],
			"type":"VEC3"
		},
		{
			"bufferView":23,
			"componentType":5126,
			"count":1984,
			"type":"VEC3"
		},
		{
			"bufferView":24,
			"componentType":5126,
			"count":1984,
			"type":"VEC2"
		},
		{
			"bufferView":25,
			"componentType":5126,
			"count":1984,
			"max":[
				0.9999997019767761,
				3.2253623008728027,
				0.9999993443489075
			],
			"min":[
				-0.9999990463256836,
				1.2253623008728027,
				-1
			],
			"type":"VEC3"
		},
		{
			"bufferView":26,
			"componentType":5126,
			"count":1984,
			"type":"VEC3"
		},
		{
			"bufferView":27,
			"componentType":5126,
			"count":1984,
			"type":"VEC2"
		},
		{
			"bufferView":28,
			"componentType":5126,
			"count":1984,
			"max":[
				0.9999997019767761,
				3.2253623008728027,
				0.9999993443489075
			],
			"min":[
				-0.9999990463256836,
				1.2253623008728027,
				-1
			],
			"type":"VEC3"
		},
		{
			"bufferView":29,
			"componentType":5126,
			"count":1984,
			"type":"VEC3"
		},
		{
			"bufferView":30,
			"componentType":5126,
			"count":1984,
			"type":"VEC2"
		},
		{
			"bufferView":31,
			"componentType":5126,
			"count":1984,
			"max":[
				0.9999997019767761,
				3.2253623008728027,
				0.9999993443489075
			],
			"min":[
				-0.9999990463256836,
				1.2253623008728027,
				-1
			],
			"type":"VEC3"
		},
		{
			"bufferView":32,
			"componentType":5126,
			"count":1984,
			"type":"VEC3"
		},
		{
			"bufferView":33,
			"componentType":5126,
			"count":1984,
			"type":"VEC2"
		},
		{
			"bufferView":34,
			"componentType":5126,
			"count":1984,
			"max":[
				0.9999997019767761,
				3.2253623008728027,
				0.9999993443489075
			],
			"min":[
				-0.9999990463256836,
				1.2253623008728027,
				-1
			],
			"type":"VEC3"
		},
		{
			"bufferView":35,
			"componentType":5126,
			"count":1984,
			"type":"VEC3"
		},
		{
			"bufferView":36,
			"componentType":5126,
			"count":1984,
			"type":"VEC2"
		},
		{
			"bufferView":37,
			"componentType":5126,
			"count":1984,
			"max":[
				0.9999997019767761,
				3.2253623008728027,
				0.9999993443489075
			],
			"min":[
				-0.9999990463256836,
				1.2253623008728027,
				-1
			],
			"type":"VEC3"
		},
		{
			"bufferView":38,
			"componentType":5126,
			"count":1984,
			"type":"VEC3"
		},
		{
			"bufferView":39,
			"componentType":5126,
			"count":1984,
			"type":"VEC2"
		},
		{
			"bufferView":40,
			"componentType":5126,
			"count":1984,
			"max":[
				0.9999997019767761,
				3.2253623008728027,
				0.9999993443489075
			],
			"min":[
				-0.9999990463256836,
				1.2253623008728027,
				-1
			],
			"type":"VEC3"
		},
		{
			"bufferView":41,
			"componentType":5126,
			"count":1984,
			"type":"VEC3"
		},
		{
			"bufferView":42,
			"componentType":5126,
			"count":1984,
			"type":"VEC2"
		},
		{
			"bufferView":43,
			"componentType":5126,
			"count":1984,
			"max":[
				0.9999997019767761,
				1,
				0.9999993443489075
			],
			"min":[
				-0.9999990463256836,
				-1,
				-1
			],
			"type":"VEC3"
		},
		{
			"bufferView":44,
			"componentType":5126,
			"count":1984,
			"type":"VEC3"
		},
		{
			"bufferView":45,
			"componentType":5126,
			"count":1984,
			"type":"VEC2"
		},
		{
			"bufferView":46,
			"componentType":5123,
			"count":2880,
			"type":"SCALAR"
		},
		{
			"bufferView":47,
			"componentType":5126,
			"count":1984,
			"max":[
				0.9999997019767761,
				1,
				0.9999993443489075
			],
			"min":[
				-0.9999990463256836,
				-1,
				-1
			],
			"type":"VEC3"
		},
		{
			"bufferView":48,
			"componentType":5126,
			"count":1984,
			"type":"VEC3"
		},
		{
			"bufferView":49,
			"componentType":5126,
			"count":1984,
			"type":"VEC2"
		},
		{
			"bufferView":50,
			"componentType":5126,
			"count":1984,
			"max":[
				0.9999997019767761,
				1,
				0.9999993443489075
			],
			"min":[
				-0.9999990463256836,
				-1,
				-1
			],
			"type":"VEC3"
		},
		{
			"bufferView":51,
			"componentType":5126,
			"count":1984,
			"type":"VEC3"
		},
		{
			"bufferView":52,
			"componentType":5126,
			"count":1984,
			"type":"VEC2"
		}
	],
	"bufferViews":[
		{
			"buffer":0,
			"byteLength":23808,
			"byteOffset":0,
			"target":34962
		},
		{
			"buffer":0,
			"byteLength":23808,
			"byteOffset":23808,
			"target":34962
		},
		{
			"buffer":0,
			"byteLength":15872,
			"byteOffset":47616,
			"target":34962
		},
		{
			"buffer":0,
			"byteLength":5760,
			"byteOffset":63488,
			"target":34963
		},
		{
			"buffer":0,
			"byteLength":23808,
			"byteOffset":69248,
			"target":34962
		},
		{
			"buffer":0,
			"byteLength":23808,
			"byteOffset":93056,
			"target":34962
		},
		{
			"buffer":0,
			"byteLength":15872,
			"byteOffset":116864,
			"target":34962
		},
		{
			"buffer":0,
			"byteLength":23808,
			"byteOffset":132736,
			"target":34962
		},
		{
			"buffer":0,
			"byteLength":23808,
			"byteOffset":156544,
			"target":34962
		},
		{
			"buffer":0,
			"byteLength":15872,
			"byteOffset":180352,
			"target":34962
		},
		{
			"buffer":0,
			"byteLength":23808,
			"byteOffset":196224,
			"target":34962
		},
		{
			"buffer":0,
			"byteLength":23808,
			"byteOffset":220032,
			"target":34962
		},
		{
			"buffer":0,
			"byteLength":15872,
			"byteOffset":243840,
			"target":34962
		},
		{
			"buffer":0,
			"byteLength":23808,
			"byteOffset":259712,
			"target":34962
		},
		{
			"buffer":0,
			"byteLength":23808,
			"byteOffset":283520,
			"target":34962
		},
		{
			"buffer":0,
			"byteLength":15872,
			"byteOffset":307328,
			"target":34962
		},
		{
			"buffer":0,
			"byteLength":23808,
			"byteOffset":323200,
			"target":34962
		},
		{
			"buffer":0,
			"byteLength":23808,
			"byteOffset":347008,
			"target":34962
		},
		{
			"buffer":0,
			"byteLength":15872,
			"byteOffset":370816,
			"target":34962
		},
		{
			"buffer":0,
			"byteLength":23808,
			"byteOffset":386688,
			"target":34962
		},
		{
			"buffer":0,
			"byteLength":23808,
			"byteOffset":410496,
			"target":34962
		},
		{
			"buffer":0,
			"byteLength":15872,
			"byteOffset":434304,
			"target":34962
		},
		{
			"buffer":0,
			"byteLength":23808,
			"byteOffset":450176,
			"target":34962
		},
		{
			"buffer":0,
			"byteLength":23808,
			"byteOffset":473984,
			"target":34962
		},
		{
			"buffer":0,
			"byteLength":15872,
			"byteOffset":497792,
			"target":34962
		},
		{
			"buffer":0,
			"byteLength":23808,
			"byteOffset":513664,
			"target":34962
		},
		{
			"buffer":0,
			"byteLength":23808,
			"byteOffset":537472,
			"target":34962
		},
		{
			"buffer":0,
			"byteLength":15872,
			"byteOffset":561280,
			"target":34962
		},
		{
			"buffer":0,
			"byteLength":23808,
			"byteOffset":577152,
			"target":34962
		},
		{
			"buffer":0,
			"byteLength":23808,
			"byteOffset":600960,
			"target":34962
		},
		{
			"buffer":0,
			"byteLength":15872,
			"byteOffset":624768,
			"target":34962
		},
		{
			"buffer":0,
			"byteLength":23808,
			"byteOffset":640640,
			"target":34962
		},
		{
			"buffer":0,
			"byteLength":23808,
			"byteOffset":664448,
			"target":34962
		},
		{
			"buffer":0,
			"byteLength":15872,
			"byteOffset":688256,
			"target":34962
		},
		{
			"buffer":0,
			"byteLength":23808,
			"byteOffset":704128,
			"target":34962
		},
		{
			"buffer":0,
			"byteLength":23808,
			"byteOffset":727936,
			"target":34962
		},
		{
			"buffer":0,
			"byteLength":15872,
			"byteOffset":751744,
			"target":34962
		},
		{
			"buffer":0,
			"byteLength":23808,
			"byteOffset":767616,
			"target":34962
		},
		{
			"buffer":0,
			"byteLength":23808,
			"byteOffset":791424,
			"target":34962
		},
		{
			"buffer":0,
			"byteLength":15872,
			"byteOffset":815232,
			"target":34962
		},
		{
			"buffer":0,
			"byteLength":23808,
			"byteOffset":831104,
			"target":34962
		},
		{
			"buffer":0,
			"byteLength":23808,
			"byteOffset":854912,
			"target":34962
		},
		{
			"buffer":0,
			"byteLength":15872,
			"byteOffset":878720,
			"target":34962
		},
		{
			"buffer":0,
			"byteLength":23808,
			"byteOffset":894592,
			"target":34962
		},
		{
			"buffer":0,
			"byteLength":23808,
			"byteOffset":918400,
			"target":34962
		},
		{
			"buffer":0,
			"byteLength":15872,
			"byteOffset":942208,
			"target":34962
		},
		{
			"buffer":0,
			"byteLength":5760,
			"byteOffset":958080,
			"target":34963
		},
		{
			"buffer":0,
			"byteLength":23808,
			"byteOffset":963840,
			"target":34962
		},
		{
			"buffer":0,
			"byteLength":23808,
			"byteOffset":987648,
			"target":34962
		},
		{
			"buffer":0,
			"byteLength":15872,
			"byteOffset":1011456,
			"target":34962
		},
		{
			"buffer":0,
			"byteLength":23808,
			"byteOffset":1027328,
			"target":34962
		},
		{
			"buffer":0,
			"byteLength":23808,
			"byteOffset":1051136,
			"target":34962
		},
		{
			"buffer":0,
			"byteLength":15872,
			"byteOffset":1074944,
			"target":34962
		}
	],
	"buffers":[
		{
			"byteLength":1090816,
			"uri":"data:application/octet-stream;base64,"
		}
	]
}
