{
	"asset":{
		"generator":"Khronos glTF Blender I/O v3.6.27",
		"version":"2.0"
	},
	"scene":0,
	"scenes":[
		{
			"name":"Scene",
			"nodes":[
				0
			]
		}
	],
	"nodes":[
		{
			"mesh":0,
			"name":"Rosca",
			"rotation":[
				-0.1383385956287384,
				0.9677318334579468,
				-0.17400172352790833,
				0.11866375803947449
			],
			"scale":[
				-1.2506532669067383,
				-0.5569738745689392,
				-1.2506532669067383
			],
			"translation":[
				0,
				1.086538314819336,
				0
			]
		}
	],
	"materials":[
		{
			"doubleSided":true,
			"name":"Material.001",
			"pbrMetallicRoughness":{
				"baseColorFactor":[
					0,
					0,
					0,
					1
				],
				"metallicFactor":0,
				"roughnessFactor":0.5
			}
		},
		{
			"doubleSided":true,
			"name":"Material.002",
			"pbrMetallicRoughness":{
				"baseColorFactor":[
					0.24202224612236023,
					0.005353279411792755,
					0.40196770429611206,
					1
				],
				"metallicFactor":0,
				"roughnessFactor":0.5
			}
		}
	],
	"meshes":[
		{
			"name":"Rosca",
			"primitives":[
				{
					"attributes":{
						"COLOR_0":0,
						"POSITION":1,
						"NORMAL":2,
						"TEXCOORD_0":3,
						"TEXCOORD_1":4
					},
					"indices":5,
					"material":0
				},
				{
					"attributes":{
						"COLOR_0":6,
						"POSITION":7,
						"NORMAL":8,
						"TEXCOORD_0":9,
						"TEXCOORD_1":10
					},
					"indices":11,
					"material":1
				}
			]
		}
	],
	"accessors":[
		{
			"bufferView":0,
			"componentType":5123,
			"count":4456,
			"normalized":true,
			"type":"VEC4"
		},
		{
			"bufferView":1,
			"componentType":5126,
			"count":4456,
			"max":[
				1.25,
				0.25,
				1.25
			],
			"min":[
				-1.25,
				-3.6289777755737305,
				-1.25
			],
			"type":"VEC3"
		},
		{
			"bufferView":2,
			"componentType":5126,
			"count":4456,
			"type":"VEC3"
		},
		{
			"bufferView":3,
			"componentType":5126,
			"count":4456,
			"type":"VEC2"
		},
		{
			"bufferView":4,
			"componentType":5126,
			"count":4456,
			"type":"VEC2"
		},
		{
			"bufferView":5,
			"componentType":5123,
			"count":6864,
			"type":"SCALAR"
		},
		{
			"bufferView":6,
			"componentType":5123,
			"count":664,
			"normalized":true,
			"type":"VEC4"
		},
		{
			"bufferView":7,
			"componentType":5126,
			"count":664,
			"max":[
				0.976472795009613,
				-0.19938120245933533,
				0.976472795009613
			],
			"min":[
				-0.976472795009613,
				-0.39467573165893555,
				-0.976472795009613
			],
			"type":"VEC3"
		},
		{
			"bufferView":8,
			"componentType":5126,
			"count":664,
			"type":"VEC3"
		},
		{
			"bufferView":9,
			"componentType":5126,
			"count":664,
			"type":"VEC2"
		},
		{
			"bufferView":10,
			"componentType":5126,
			"count":664,
			"type":"VEC2"
		},
		{
			"bufferView":11,
			"componentType":5123,
			"count":996,
			"type":"SCALAR"
		}
	],
	"bufferViews":[
		{
			"buffer":0,
			"byteLength":35648,
			"byteOffset":0,
			"target":34962
		},
		{
			"buffer":0,
			"byteLength":53472,
			"byteOffset":35648,
			"target":34962
		},
		{
			"buffer":0,
			"byteLength":53472,
			"byteOffset":89120,
			"target":34962
		},
		{
			"buffer":0,
			"byteLength":35648,
			"byteOffset":142592,
			"target":34962
		},
		{
			"buffer":0,
			"byteLength":35648,
			"byteOffset":178240,
			"target":34962
		},
		{
			"buffer":0,
			"byteLength":13728,
			"byteOffset":213888,
			"target":34963
		},
		{
			"buffer":0,
			"byteLength":5312,
			"byteOffset":227616,
			"target":34962
		},
		{
			"buffer":0,
			"byteLength":7968,
			"byteOffset":232928,
			"target":34962
		},
		{
			"buffer":0,
			"byteLength":7968,
			"byteOffset":240896,
			"target":34962
		},
		{
			"buffer":0,
			"byteLength":5312,
			"byteOffset":248864,
			"target":34962
		},
		{
			"buffer":0,
			"byteLength":5312,
			"byteOffset":254176,
			"target":34962
		},
		{
			"buffer":0,
			"byteLength":1992,
			"byteOffset":259488,
			"target":34963
		}
	],
	"buffers":[
		{
			"byteLength":261480,
			"uri":"data:application/octet-stream;base64,"
		}
	]
}
